<svg width="850" height="812" viewBox="0 0 850 812" fill="none" xmlns="http://www.w3.org/2000/svg">
<g clip-path="url(#clip0_2_1163)">
<rect width="850" height="812" fill="#00232B"/>
<g clip-path="url(#clip1_2_1163)">
<mask id="path-2-outside-1_2_1163" maskUnits="userSpaceOnUse" x="393.698" y="439.962" width="89.4233" height="53.3132" fill="black">
<rect fill="white" x="393.698" y="439.962" width="89.4233" height="53.3132"/>
<path d="M476.203 482.958C479.381 482.597 481.706 479.709 480.906 476.612C478.666 467.936 473.66 460.163 466.569 454.518C457.957 447.664 446.976 444.511 436.039 445.753C425.103 446.996 415.109 452.531 408.254 461.143C402.61 468.234 399.475 476.933 399.238 485.889C399.153 489.087 402.066 491.38 405.245 491.019C408.424 490.657 410.649 487.77 410.907 484.581C411.381 478.7 413.59 473.043 417.319 468.358C422.26 462.151 429.464 458.161 437.347 457.265C445.23 456.37 453.146 458.642 459.353 463.583C464.037 467.312 467.459 472.329 469.241 477.954C470.207 481.004 473.024 483.319 476.203 482.958Z"/>
</mask>
<path d="M476.203 482.958C479.381 482.597 481.706 479.709 480.906 476.612C478.666 467.936 473.66 460.163 466.569 454.518C457.957 447.664 446.976 444.511 436.039 445.753C425.103 446.996 415.109 452.531 408.254 461.143C402.61 468.234 399.475 476.933 399.238 485.889C399.153 489.087 402.066 491.38 405.245 491.019C408.424 490.657 410.649 487.77 410.907 484.581C411.381 478.7 413.59 473.043 417.319 468.358C422.26 462.151 429.464 458.161 437.347 457.265C445.23 456.37 453.146 458.642 459.353 463.583C464.037 467.312 467.459 472.329 469.241 477.954C470.207 481.004 473.024 483.319 476.203 482.958Z" stroke="white" stroke-width="2" mask="url(#path-2-outside-1_2_1163)"/>
<mask id="path-3-outside-2_2_1163" maskUnits="userSpaceOnUse" x="-71.2757" y="776.598" width="89.4233" height="53.3132" fill="black">
<rect fill="white" x="-71.2757" y="776.598" width="89.4233" height="53.3132"/>
<path d="M11.2287 819.593C14.4077 819.232 16.7318 816.345 15.9319 813.247C13.6918 804.572 8.68616 796.798 1.59499 791.154C-7.01651 784.299 -17.9983 781.146 -28.9344 782.389C-39.8705 783.631 -49.8653 789.167 -56.7198 797.778C-62.3642 804.87 -65.4986 813.568 -65.7357 822.525C-65.8204 825.723 -62.9078 828.015 -59.7289 827.654C-56.5499 827.293 -54.3247 824.406 -54.0672 821.217C-53.5924 815.335 -51.3833 809.678 -47.6549 804.994C-42.714 798.787 -35.5096 794.796 -27.6266 793.901C-19.7436 793.005 -11.8278 795.278 -5.62045 800.219C-0.936326 803.947 2.48537 808.965 4.2674 814.59C5.23361 817.64 8.04978 819.954 11.2287 819.593Z"/>
</mask>
<path d="M11.2287 819.593C14.4077 819.232 16.7318 816.345 15.9319 813.247C13.6918 804.572 8.68616 796.798 1.59499 791.154C-7.01651 784.299 -17.9983 781.146 -28.9344 782.389C-39.8705 783.631 -49.8653 789.167 -56.7198 797.778C-62.3642 804.87 -65.4986 813.568 -65.7357 822.525C-65.8204 825.723 -62.9078 828.015 -59.7289 827.654C-56.5499 827.293 -54.3247 824.406 -54.0672 821.217C-53.5924 815.335 -51.3833 809.678 -47.6549 804.994C-42.714 798.787 -35.5096 794.796 -27.6266 793.901C-19.7436 793.005 -11.8278 795.278 -5.62045 800.219C-0.936326 803.947 2.48537 808.965 4.2674 814.59C5.23361 817.64 8.04978 819.954 11.2287 819.593Z" stroke="white" stroke-width="2" mask="url(#path-3-outside-2_2_1163)"/>
<mask id="path-4-outside-3_2_1163" maskUnits="userSpaceOnUse" x="425.529" y="720.16" width="89.4233" height="53.3132" fill="black">
<rect fill="white" x="425.529" y="720.16" width="89.4233" height="53.3132"/>
<path d="M508.033 763.155C511.212 762.794 513.536 759.907 512.737 756.809C510.496 748.134 505.491 740.361 498.4 734.716C489.788 727.862 478.806 724.709 467.87 725.951C456.934 727.193 446.939 732.729 440.085 741.341C434.44 748.432 431.306 757.13 431.069 766.087C430.984 769.285 433.897 771.577 437.076 771.216C440.255 770.855 442.48 767.968 442.737 764.779C443.212 758.897 445.421 753.24 449.15 748.556C454.091 742.349 461.295 738.359 469.178 737.463C477.061 736.568 484.977 738.84 491.184 743.781C495.868 747.51 499.29 752.527 501.072 758.152C502.038 761.202 504.854 763.517 508.033 763.155Z"/>
</mask>
<path d="M508.033 763.155C511.212 762.794 513.536 759.907 512.737 756.809C510.496 748.134 505.491 740.361 498.4 734.716C489.788 727.862 478.806 724.709 467.87 725.951C456.934 727.193 446.939 732.729 440.085 741.341C434.44 748.432 431.306 757.13 431.069 766.087C430.984 769.285 433.897 771.577 437.076 771.216C440.255 770.855 442.48 767.968 442.737 764.779C443.212 758.897 445.421 753.24 449.15 748.556C454.091 742.349 461.295 738.359 469.178 737.463C477.061 736.568 484.977 738.84 491.184 743.781C495.868 747.51 499.29 752.527 501.072 758.152C502.038 761.202 504.854 763.517 508.033 763.155Z" stroke="white" stroke-width="2" mask="url(#path-4-outside-3_2_1163)"/>
<mask id="path-5-outside-4_2_1163" maskUnits="userSpaceOnUse" x="-87.1911" y="636.499" width="89.4233" height="53.3132" fill="black">
<rect fill="white" x="-87.1911" y="636.499" width="89.4233" height="53.3132"/>
<path d="M-4.68668 679.494C-1.50774 679.133 0.816432 676.246 0.0165279 673.148C-2.2236 664.473 -7.22924 656.699 -14.3204 651.055C-22.9319 644.2 -33.9137 641.047 -44.8498 642.29C-55.786 643.532 -65.7807 649.068 -72.6352 657.68C-78.2796 664.771 -81.414 673.469 -81.6511 682.426C-81.7358 685.624 -78.8232 687.916 -75.6443 687.555C-72.4654 687.194 -70.2401 684.307 -69.9826 681.118C-69.5078 675.236 -67.2987 669.579 -63.5703 664.895C-58.6294 658.688 -51.425 654.697 -43.542 653.802C-35.6591 652.906 -27.7432 655.179 -21.5359 660.12C-16.8517 663.848 -13.43 668.866 -11.648 674.491C-10.6818 677.541 -7.86562 679.855 -4.68668 679.494Z"/>
</mask>
<path d="M-4.68668 679.494C-1.50774 679.133 0.816432 676.246 0.0165279 673.148C-2.2236 664.473 -7.22924 656.699 -14.3204 651.055C-22.9319 644.2 -33.9137 641.047 -44.8498 642.29C-55.786 643.532 -65.7807 649.068 -72.6352 657.68C-78.2796 664.771 -81.414 673.469 -81.6511 682.426C-81.7358 685.624 -78.8232 687.916 -75.6443 687.555C-72.4654 687.194 -70.2401 684.307 -69.9826 681.118C-69.5078 675.236 -67.2987 669.579 -63.5703 664.895C-58.6294 658.688 -51.425 654.697 -43.542 653.802C-35.6591 652.906 -27.7432 655.179 -21.5359 660.12C-16.8517 663.848 -13.43 668.866 -11.648 674.491C-10.6818 677.541 -7.86562 679.855 -4.68668 679.494Z" stroke="white" stroke-width="2" mask="url(#path-5-outside-4_2_1163)"/>
<mask id="path-6-outside-5_2_1163" maskUnits="userSpaceOnUse" x="409.614" y="580.061" width="89.4233" height="53.3132" fill="black">
<rect fill="white" x="409.614" y="580.061" width="89.4233" height="53.3132"/>
<path d="M492.118 623.057C495.297 622.695 497.621 619.808 496.821 616.711C494.581 608.035 489.575 600.262 482.484 594.617C473.873 587.763 462.891 584.61 451.955 585.852C441.019 587.095 431.024 592.63 424.169 601.242C418.525 608.333 415.391 617.031 415.154 625.988C415.069 629.186 417.981 631.479 421.16 631.117C424.339 630.756 426.565 627.869 426.822 624.68C427.297 618.799 429.506 613.142 433.234 608.457C438.175 602.25 445.38 598.26 453.263 597.364C461.146 596.469 469.061 598.741 475.269 603.682C479.953 607.411 483.375 612.428 485.157 618.053C486.123 621.103 488.939 623.418 492.118 623.057Z"/>
</mask>
<path d="M492.118 623.057C495.297 622.695 497.621 619.808 496.821 616.711C494.581 608.035 489.575 600.262 482.484 594.617C473.873 587.763 462.891 584.61 451.955 585.852C441.019 587.095 431.024 592.63 424.169 601.242C418.525 608.333 415.391 617.031 415.154 625.988C415.069 629.186 417.981 631.479 421.16 631.117C424.339 630.756 426.565 627.869 426.822 624.68C427.297 618.799 429.506 613.142 433.234 608.457C438.175 602.25 445.38 598.26 453.263 597.364C461.146 596.469 469.061 598.741 475.269 603.682C479.953 607.411 483.375 612.428 485.157 618.053C486.123 621.103 488.939 623.418 492.118 623.057Z" stroke="white" stroke-width="2" mask="url(#path-6-outside-5_2_1163)"/>
<mask id="path-7-outside-6_2_1163" maskUnits="userSpaceOnUse" x="145.296" y="468.181" width="89.4233" height="53.3132" fill="black">
<rect fill="white" x="145.296" y="468.181" width="89.4233" height="53.3132"/>
<path d="M227.8 511.177C230.979 510.815 233.303 507.928 232.503 504.831C230.263 496.155 225.258 488.382 218.166 482.737C209.555 475.883 198.573 472.73 187.637 473.972C176.701 475.215 166.706 480.75 159.852 489.362C154.207 496.453 151.073 505.151 150.836 514.108C150.751 517.306 153.664 519.599 156.843 519.237C160.022 518.876 162.247 515.989 162.504 512.8C162.979 506.918 165.188 501.261 168.917 496.577C173.857 490.37 181.062 486.38 188.945 485.484C196.828 484.589 204.744 486.861 210.951 491.802C215.635 495.531 219.057 500.548 220.839 506.173C221.805 509.223 224.621 511.538 227.8 511.177Z"/>
</mask>
<path d="M227.8 511.177C230.979 510.815 233.303 507.928 232.503 504.831C230.263 496.155 225.258 488.382 218.166 482.737C209.555 475.883 198.573 472.73 187.637 473.972C176.701 475.215 166.706 480.75 159.852 489.362C154.207 496.453 151.073 505.151 150.836 514.108C150.751 517.306 153.664 519.599 156.843 519.237C160.022 518.876 162.247 515.989 162.504 512.8C162.979 506.918 165.188 501.261 168.917 496.577C173.857 490.37 181.062 486.38 188.945 485.484C196.828 484.589 204.744 486.861 210.951 491.802C215.635 495.531 219.057 500.548 220.839 506.173C221.805 509.223 224.621 511.538 227.8 511.177Z" stroke="white" stroke-width="2" mask="url(#path-7-outside-6_2_1163)"/>
<mask id="path-8-outside-7_2_1163" maskUnits="userSpaceOnUse" x="642.1" y="411.744" width="89.4233" height="53.3132" fill="black">
<rect fill="white" x="642.1" y="411.744" width="89.4233" height="53.3132"/>
<path d="M724.605 454.739C727.784 454.378 730.108 451.491 729.308 448.393C727.068 439.718 722.062 431.944 714.971 426.3C706.36 419.445 695.378 416.292 684.442 417.534C673.506 418.777 663.511 424.313 656.656 432.924C651.012 440.015 647.877 448.714 647.64 457.67C647.556 460.869 650.468 463.161 653.647 462.8C656.826 462.439 659.051 459.551 659.309 456.362C659.784 450.481 661.993 444.824 665.721 440.14C670.662 433.932 677.866 429.942 685.749 429.046C693.632 428.151 701.548 430.424 707.756 435.364C712.44 439.093 715.861 444.11 717.643 449.736C718.61 452.786 721.426 455.1 724.605 454.739Z"/>
</mask>
<path d="M724.605 454.739C727.784 454.378 730.108 451.491 729.308 448.393C727.068 439.718 722.062 431.944 714.971 426.3C706.36 419.445 695.378 416.292 684.442 417.534C673.506 418.777 663.511 424.313 656.656 432.924C651.012 440.015 647.877 448.714 647.64 457.67C647.556 460.869 650.468 463.161 653.647 462.8C656.826 462.439 659.051 459.551 659.309 456.362C659.784 450.481 661.993 444.824 665.721 440.14C670.662 433.932 677.866 429.942 685.749 429.046C693.632 428.151 701.548 430.424 707.756 435.364C712.44 439.093 715.861 444.11 717.643 449.736C718.61 452.786 721.426 455.1 724.605 454.739Z" stroke="white" stroke-width="2" mask="url(#path-8-outside-7_2_1163)"/>
<mask id="path-9-outside-8_2_1163" maskUnits="userSpaceOnUse" x="177.127" y="748.379" width="89.4233" height="53.3132" fill="black">
<rect fill="white" x="177.127" y="748.379" width="89.4233" height="53.3132"/>
<path d="M259.631 791.374C262.81 791.013 265.134 788.126 264.334 785.028C262.094 776.353 257.088 768.579 249.997 762.935C241.386 756.08 230.404 752.928 219.468 754.17C208.532 755.412 198.537 760.948 191.683 769.56C186.038 776.651 182.904 785.349 182.667 794.306C182.582 797.504 185.494 799.796 188.673 799.435C191.852 799.074 194.078 796.187 194.335 792.998C194.81 787.116 197.019 781.459 200.747 776.775C205.688 770.568 212.893 766.577 220.776 765.682C228.659 764.786 236.575 767.059 242.782 772C247.466 775.728 250.888 780.746 252.67 786.371C253.636 789.421 256.452 791.735 259.631 791.374Z"/>
</mask>
<path d="M259.631 791.374C262.81 791.013 265.134 788.126 264.334 785.028C262.094 776.353 257.088 768.579 249.997 762.935C241.386 756.08 230.404 752.928 219.468 754.17C208.532 755.412 198.537 760.948 191.683 769.56C186.038 776.651 182.904 785.349 182.667 794.306C182.582 797.504 185.494 799.796 188.673 799.435C191.852 799.074 194.078 796.187 194.335 792.998C194.81 787.116 197.019 781.459 200.747 776.775C205.688 770.568 212.893 766.577 220.776 765.682C228.659 764.786 236.575 767.059 242.782 772C247.466 775.728 250.888 780.746 252.67 786.371C253.636 789.421 256.452 791.735 259.631 791.374Z" stroke="white" stroke-width="2" mask="url(#path-9-outside-8_2_1163)"/>
<mask id="path-10-outside-9_2_1163" maskUnits="userSpaceOnUse" x="673.931" y="691.941" width="89.4233" height="53.3132" fill="black">
<rect fill="white" x="673.931" y="691.941" width="89.4233" height="53.3132"/>
<path d="M756.436 734.937C759.615 734.576 761.939 731.688 761.139 728.591C758.899 719.915 753.893 712.142 746.802 706.497C738.19 699.643 727.209 696.49 716.273 697.732C705.336 698.975 695.342 704.511 688.487 713.122C682.843 720.213 679.708 728.912 679.471 737.868C679.387 741.066 682.299 743.359 685.478 742.998C688.657 742.636 690.882 739.749 691.14 736.56C691.615 730.679 693.824 725.022 697.552 720.337C702.493 714.13 709.697 710.14 717.58 709.244C725.463 708.349 733.379 710.621 739.586 715.562C744.271 719.291 747.692 724.308 749.474 729.933C750.441 732.983 753.257 735.298 756.436 734.937Z"/>
</mask>
<path d="M756.436 734.937C759.615 734.576 761.939 731.688 761.139 728.591C758.899 719.915 753.893 712.142 746.802 706.497C738.19 699.643 727.209 696.49 716.273 697.732C705.336 698.975 695.342 704.511 688.487 713.122C682.843 720.213 679.708 728.912 679.471 737.868C679.387 741.066 682.299 743.359 685.478 742.998C688.657 742.636 690.882 739.749 691.14 736.56C691.615 730.679 693.824 725.022 697.552 720.337C702.493 714.13 709.697 710.14 717.58 709.244C725.463 708.349 733.379 710.621 739.586 715.562C744.271 719.291 747.692 724.308 749.474 729.933C750.441 732.983 753.257 735.298 756.436 734.937Z" stroke="white" stroke-width="2" mask="url(#path-10-outside-9_2_1163)"/>
<mask id="path-11-outside-10_2_1163" maskUnits="userSpaceOnUse" x="161.211" y="608.28" width="89.4233" height="53.3132" fill="black">
<rect fill="white" x="161.211" y="608.28" width="89.4233" height="53.3132"/>
<path d="M243.716 651.275C246.895 650.914 249.219 648.027 248.419 644.929C246.179 636.254 241.173 628.481 234.082 622.836C225.47 615.982 214.489 612.829 203.553 614.071C192.616 615.313 182.622 620.849 175.767 629.461C170.123 636.552 166.988 645.25 166.751 654.207C166.667 657.405 169.579 659.697 172.758 659.336C175.937 658.975 178.162 656.088 178.42 652.899C178.895 647.017 181.104 641.36 184.832 636.676C189.773 630.469 196.977 626.479 204.86 625.583C212.743 624.687 220.659 626.96 226.866 631.901C231.551 635.629 234.972 640.647 236.754 646.272C237.721 649.322 240.537 651.637 243.716 651.275Z"/>
</mask>
<path d="M243.716 651.275C246.895 650.914 249.219 648.027 248.419 644.929C246.179 636.254 241.173 628.481 234.082 622.836C225.47 615.982 214.489 612.829 203.553 614.071C192.616 615.313 182.622 620.849 175.767 629.461C170.123 636.552 166.988 645.25 166.751 654.207C166.667 657.405 169.579 659.697 172.758 659.336C175.937 658.975 178.162 656.088 178.42 652.899C178.895 647.017 181.104 641.36 184.832 636.676C189.773 630.469 196.977 626.479 204.86 625.583C212.743 624.687 220.659 626.96 226.866 631.901C231.551 635.629 234.972 640.647 236.754 646.272C237.721 649.322 240.537 651.637 243.716 651.275Z" stroke="white" stroke-width="2" mask="url(#path-11-outside-10_2_1163)"/>
<mask id="path-12-outside-11_2_1163" maskUnits="userSpaceOnUse" x="658.016" y="551.843" width="89.4233" height="53.3132" fill="black">
<rect fill="white" x="658.016" y="551.843" width="89.4233" height="53.3132"/>
<path d="M740.52 594.838C743.699 594.477 746.023 591.59 745.223 588.492C742.983 579.816 737.978 572.043 730.886 566.398C722.275 559.544 711.293 556.391 700.357 557.633C689.421 558.876 679.426 564.412 672.572 573.023C666.927 580.114 663.793 588.813 663.556 597.769C663.471 600.968 666.384 603.26 669.563 602.899C672.742 602.537 674.967 599.65 675.224 596.461C675.699 590.58 677.908 584.923 681.637 580.239C686.578 574.031 693.782 570.041 701.665 569.145C709.548 568.25 717.464 570.522 723.671 575.463C728.355 579.192 731.777 584.209 733.559 589.834C734.525 592.884 737.341 595.199 740.52 594.838Z"/>
</mask>
<path d="M740.52 594.838C743.699 594.477 746.023 591.59 745.223 588.492C742.983 579.816 737.978 572.043 730.886 566.398C722.275 559.544 711.293 556.391 700.357 557.633C689.421 558.876 679.426 564.412 672.572 573.023C666.927 580.114 663.793 588.813 663.556 597.769C663.471 600.968 666.384 603.26 669.563 602.899C672.742 602.537 674.967 599.65 675.224 596.461C675.699 590.58 677.908 584.923 681.637 580.239C686.578 574.031 693.782 570.041 701.665 569.145C709.548 568.25 717.464 570.522 723.671 575.463C728.355 579.192 731.777 584.209 733.559 589.834C734.525 592.884 737.341 595.199 740.52 594.838Z" stroke="white" stroke-width="2" mask="url(#path-12-outside-11_2_1163)"/>
<mask id="path-13-outside-12_2_1163" maskUnits="userSpaceOnUse" x="21.0947" y="482.291" width="89.4233" height="53.3132" fill="black">
<rect fill="white" x="21.0947" y="482.291" width="89.4233" height="53.3132"/>
<path d="M103.599 525.286C106.778 524.925 109.102 522.038 108.302 518.94C106.062 510.265 101.057 502.491 93.9654 496.847C85.3539 489.992 74.3721 486.839 63.436 488.082C52.4998 489.324 42.5051 494.86 35.6506 503.471C30.0062 510.562 26.8718 519.261 26.6347 528.217C26.55 531.416 29.4625 533.708 32.6415 533.347C35.8204 532.986 38.0457 530.098 38.3031 526.909C38.778 521.028 40.987 515.371 44.7155 510.687C49.6564 504.479 56.8607 500.489 64.7437 499.593C72.6267 498.698 80.5426 500.971 86.7499 505.912C91.434 509.64 94.8557 514.657 96.6378 520.283C97.604 523.333 100.42 525.647 103.599 525.286Z"/>
</mask>
<path d="M103.599 525.286C106.778 524.925 109.102 522.038 108.302 518.94C106.062 510.265 101.057 502.491 93.9654 496.847C85.3539 489.992 74.3721 486.839 63.436 488.082C52.4998 489.324 42.5051 494.86 35.6506 503.471C30.0062 510.562 26.8718 519.261 26.6347 528.217C26.55 531.416 29.4625 533.708 32.6415 533.347C35.8204 532.986 38.0457 530.098 38.3031 526.909C38.778 521.028 40.987 515.371 44.7155 510.687C49.6564 504.479 56.8607 500.489 64.7437 499.593C72.6267 498.698 80.5426 500.971 86.7499 505.912C91.434 509.64 94.8557 514.657 96.6378 520.283C97.604 523.333 100.42 525.647 103.599 525.286Z" stroke="white" stroke-width="2" mask="url(#path-13-outside-12_2_1163)"/>
<mask id="path-14-outside-13_2_1163" maskUnits="userSpaceOnUse" x="517.899" y="425.853" width="89.4233" height="53.3132" fill="black">
<rect fill="white" x="517.899" y="425.853" width="89.4233" height="53.3132"/>
<path d="M600.404 468.848C603.583 468.487 605.907 465.6 605.107 462.502C602.867 453.827 597.861 446.053 590.77 440.409C582.158 433.554 571.177 430.402 560.241 431.644C549.304 432.886 539.31 438.422 532.455 447.034C526.811 454.125 523.676 462.823 523.439 471.78C523.355 474.978 526.267 477.27 529.446 476.909C532.625 476.548 534.85 473.661 535.108 470.472C535.583 464.59 537.792 458.933 541.52 454.249C546.461 448.042 553.665 444.051 561.548 443.156C569.431 442.26 577.347 444.533 583.554 449.474C588.239 453.202 591.66 458.22 593.442 463.845C594.409 466.895 597.225 469.209 600.404 468.848Z"/>
</mask>
<path d="M600.404 468.848C603.583 468.487 605.907 465.6 605.107 462.502C602.867 453.827 597.861 446.053 590.77 440.409C582.158 433.554 571.177 430.402 560.241 431.644C549.304 432.886 539.31 438.422 532.455 447.034C526.811 454.125 523.676 462.823 523.439 471.78C523.355 474.978 526.267 477.27 529.446 476.909C532.625 476.548 534.85 473.661 535.108 470.472C535.583 464.59 537.792 458.933 541.52 454.249C546.461 448.042 553.665 444.051 561.548 443.156C569.431 442.26 577.347 444.533 583.554 449.474C588.239 453.202 591.66 458.22 593.442 463.845C594.409 466.895 597.225 469.209 600.404 468.848Z" stroke="white" stroke-width="2" mask="url(#path-14-outside-13_2_1163)"/>
<mask id="path-15-outside-14_2_1163" maskUnits="userSpaceOnUse" x="52.9255" y="762.489" width="89.4233" height="53.3132" fill="black">
<rect fill="white" x="52.9255" y="762.489" width="89.4233" height="53.3132"/>
<path d="M135.43 805.484C138.609 805.123 140.933 802.236 140.133 799.138C137.893 790.462 132.887 782.689 125.796 777.044C117.185 770.19 106.203 767.037 95.2668 768.279C84.3306 769.522 74.3359 775.058 67.4814 783.669C61.837 790.76 58.7026 799.459 58.4655 808.415C58.3808 811.614 61.2933 813.906 64.4723 813.545C67.6512 813.183 69.8765 810.296 70.1339 807.107C70.6088 801.226 72.8178 795.569 76.5463 790.885C81.4872 784.677 88.6916 780.687 96.5745 779.791C104.458 778.896 112.373 781.168 118.581 786.109C123.265 789.838 126.687 794.855 128.469 800.48C129.435 803.53 132.251 805.845 135.43 805.484Z"/>
</mask>
<path d="M135.43 805.484C138.609 805.123 140.933 802.236 140.133 799.138C137.893 790.462 132.887 782.689 125.796 777.044C117.185 770.19 106.203 767.037 95.2668 768.279C84.3306 769.522 74.3359 775.058 67.4814 783.669C61.837 790.76 58.7026 799.459 58.4655 808.415C58.3808 811.614 61.2933 813.906 64.4723 813.545C67.6512 813.183 69.8765 810.296 70.1339 807.107C70.6088 801.226 72.8178 795.569 76.5463 790.885C81.4872 784.677 88.6916 780.687 96.5745 779.791C104.458 778.896 112.373 781.168 118.581 786.109C123.265 789.838 126.687 794.855 128.469 800.48C129.435 803.53 132.251 805.845 135.43 805.484Z" stroke="white" stroke-width="2" mask="url(#path-15-outside-14_2_1163)"/>
<mask id="path-16-outside-15_2_1163" maskUnits="userSpaceOnUse" x="549.73" y="706.051" width="89.4233" height="53.3132" fill="black">
<rect fill="white" x="549.73" y="706.051" width="89.4233" height="53.3132"/>
<path d="M632.234 749.046C635.413 748.685 637.738 745.798 636.938 742.7C634.698 734.025 629.692 726.251 622.601 720.607C613.989 713.752 603.008 710.599 592.071 711.842C581.135 713.084 571.141 718.62 564.286 727.231C558.642 734.323 555.507 743.021 555.27 751.978C555.185 755.176 558.098 757.468 561.277 757.107C564.456 756.746 566.681 753.859 566.939 750.67C567.413 744.788 569.622 739.131 573.351 734.447C578.292 728.239 585.496 724.249 593.379 723.354C601.262 722.458 609.178 724.731 615.385 729.672C620.069 733.4 623.491 738.417 625.273 744.043C626.239 747.093 629.056 749.407 632.234 749.046Z"/>
</mask>
<path d="M632.234 749.046C635.413 748.685 637.738 745.798 636.938 742.7C634.698 734.025 629.692 726.251 622.601 720.607C613.989 713.752 603.008 710.599 592.071 711.842C581.135 713.084 571.141 718.62 564.286 727.231C558.642 734.323 555.507 743.021 555.27 751.978C555.185 755.176 558.098 757.468 561.277 757.107C564.456 756.746 566.681 753.859 566.939 750.67C567.413 744.788 569.622 739.131 573.351 734.447C578.292 728.239 585.496 724.249 593.379 723.354C601.262 722.458 609.178 724.731 615.385 729.672C620.069 733.4 623.491 738.417 625.273 744.043C626.239 747.093 629.056 749.407 632.234 749.046Z" stroke="white" stroke-width="2" mask="url(#path-16-outside-15_2_1163)"/>
<mask id="path-17-outside-16_2_1163" maskUnits="userSpaceOnUse" x="37.0101" y="622.39" width="89.4233" height="53.3132" fill="black">
<rect fill="white" x="37.0101" y="622.39" width="89.4233" height="53.3132"/>
<path d="M119.514 665.385C122.693 665.024 125.018 662.137 124.218 659.039C121.978 650.364 116.972 642.59 109.881 636.946C101.269 630.091 90.2875 626.938 79.3514 628.18C68.4152 629.423 58.4205 634.959 51.566 643.57C45.9216 650.661 42.7872 659.36 42.5501 668.316C42.4654 671.515 45.3779 673.807 48.5569 673.446C51.7358 673.085 53.9611 670.197 54.2185 667.008C54.6934 661.127 56.9024 655.47 60.6309 650.786C65.5718 644.578 72.7761 640.588 80.6591 639.692C88.5421 638.797 96.458 641.07 102.665 646.01C107.349 649.739 110.771 654.756 112.553 660.382C113.519 663.432 116.336 665.746 119.514 665.385Z"/>
</mask>
<path d="M119.514 665.385C122.693 665.024 125.018 662.137 124.218 659.039C121.978 650.364 116.972 642.59 109.881 636.946C101.269 630.091 90.2875 626.938 79.3514 628.18C68.4152 629.423 58.4205 634.959 51.566 643.57C45.9216 650.661 42.7872 659.36 42.5501 668.316C42.4654 671.515 45.3779 673.807 48.5569 673.446C51.7358 673.085 53.9611 670.197 54.2185 667.008C54.6934 661.127 56.9024 655.47 60.6309 650.786C65.5718 644.578 72.7761 640.588 80.6591 639.692C88.5421 638.797 96.458 641.07 102.665 646.01C107.349 649.739 110.771 654.756 112.553 660.382C113.519 663.432 116.336 665.746 119.514 665.385Z" stroke="white" stroke-width="2" mask="url(#path-17-outside-16_2_1163)"/>
<mask id="path-18-outside-17_2_1163" maskUnits="userSpaceOnUse" x="533.815" y="565.952" width="89.4233" height="53.3132" fill="black">
<rect fill="white" x="533.815" y="565.952" width="89.4233" height="53.3132"/>
<path d="M616.319 608.947C619.498 608.586 621.822 605.699 621.022 602.601C618.782 593.926 613.777 586.152 606.685 580.508C598.074 573.653 587.092 570.5 576.156 571.743C565.22 572.985 555.225 578.521 548.371 587.133C542.726 594.224 539.592 602.922 539.355 611.879C539.27 615.077 542.183 617.369 545.361 617.008C548.54 616.647 550.766 613.76 551.023 610.571C551.498 604.689 553.707 599.032 557.435 594.348C562.376 588.141 569.581 584.15 577.464 583.255C585.347 582.359 593.263 584.632 599.47 589.573C604.154 593.301 607.576 598.319 609.358 603.944C610.324 606.994 613.14 609.308 616.319 608.947Z"/>
</mask>
<path d="M616.319 608.947C619.498 608.586 621.822 605.699 621.022 602.601C618.782 593.926 613.777 586.152 606.685 580.508C598.074 573.653 587.092 570.5 576.156 571.743C565.22 572.985 555.225 578.521 548.371 587.133C542.726 594.224 539.592 602.922 539.355 611.879C539.27 615.077 542.183 617.369 545.361 617.008C548.54 616.647 550.766 613.76 551.023 610.571C551.498 604.689 553.707 599.032 557.435 594.348C562.376 588.141 569.581 584.15 577.464 583.255C585.347 582.359 593.263 584.632 599.47 589.573C604.154 593.301 607.576 598.319 609.358 603.944C610.324 606.994 613.14 609.308 616.319 608.947Z" stroke="white" stroke-width="2" mask="url(#path-18-outside-17_2_1163)"/>
<mask id="path-19-outside-18_2_1163" maskUnits="userSpaceOnUse" x="269.497" y="454.072" width="89.4233" height="53.3132" fill="black">
<rect fill="white" x="269.497" y="454.072" width="89.4233" height="53.3132"/>
<path d="M352.001 497.067C355.18 496.706 357.504 493.819 356.705 490.721C354.464 482.046 349.459 474.272 342.368 468.628C333.756 461.773 322.774 458.62 311.838 459.863C300.902 461.105 290.907 466.641 284.053 475.252C278.408 482.344 275.274 491.042 275.037 499.999C274.952 503.197 277.865 505.489 281.044 505.128C284.223 504.767 286.448 501.88 286.705 498.691C287.18 492.809 289.389 487.152 293.118 482.468C298.059 476.261 305.263 472.27 313.146 471.375C321.029 470.479 328.945 472.752 335.152 477.693C339.836 481.421 343.258 486.439 345.04 492.064C346.006 495.114 348.822 497.428 352.001 497.067Z"/>
</mask>
<path d="M352.001 497.067C355.18 496.706 357.504 493.819 356.705 490.721C354.464 482.046 349.459 474.272 342.368 468.628C333.756 461.773 322.774 458.62 311.838 459.863C300.902 461.105 290.907 466.641 284.053 475.252C278.408 482.344 275.274 491.042 275.037 499.999C274.952 503.197 277.865 505.489 281.044 505.128C284.223 504.767 286.448 501.88 286.705 498.691C287.18 492.809 289.389 487.152 293.118 482.468C298.059 476.261 305.263 472.27 313.146 471.375C321.029 470.479 328.945 472.752 335.152 477.693C339.836 481.421 343.258 486.439 345.04 492.064C346.006 495.114 348.822 497.428 352.001 497.067Z" stroke="white" stroke-width="2" mask="url(#path-19-outside-18_2_1163)"/>
<mask id="path-20-outside-19_2_1163" maskUnits="userSpaceOnUse" x="766.302" y="397.634" width="89.4233" height="53.3132" fill="black">
<rect fill="white" x="766.302" y="397.634" width="89.4233" height="53.3132"/>
<path d="M848.806 440.629C851.985 440.268 854.309 437.381 853.509 434.283C851.269 425.608 846.263 417.835 839.172 412.19C830.561 405.336 819.579 402.183 808.643 403.425C797.707 404.667 787.712 410.203 780.857 418.815C775.213 425.906 772.079 434.604 771.842 443.561C771.757 446.759 774.669 449.051 777.848 448.69C781.027 448.329 783.253 445.442 783.51 442.253C783.985 436.371 786.194 430.714 789.922 426.03C794.863 419.823 802.068 415.833 809.951 414.937C817.834 414.042 825.749 416.314 831.957 421.255C836.641 424.984 840.063 430.001 841.845 435.626C842.811 438.676 845.627 440.991 848.806 440.629Z"/>
</mask>
<path d="M848.806 440.629C851.985 440.268 854.309 437.381 853.509 434.283C851.269 425.608 846.263 417.835 839.172 412.19C830.561 405.336 819.579 402.183 808.643 403.425C797.707 404.667 787.712 410.203 780.857 418.815C775.213 425.906 772.079 434.604 771.842 443.561C771.757 446.759 774.669 449.051 777.848 448.69C781.027 448.329 783.253 445.442 783.51 442.253C783.985 436.371 786.194 430.714 789.922 426.03C794.863 419.823 802.068 415.833 809.951 414.937C817.834 414.042 825.749 416.314 831.957 421.255C836.641 424.984 840.063 430.001 841.845 435.626C842.811 438.676 845.627 440.991 848.806 440.629Z" stroke="white" stroke-width="2" mask="url(#path-20-outside-19_2_1163)"/>
<mask id="path-21-outside-20_2_1163" maskUnits="userSpaceOnUse" x="301.328" y="734.27" width="89.4233" height="53.3132" fill="black">
<rect fill="white" x="301.328" y="734.27" width="89.4233" height="53.3132"/>
<path d="M383.832 777.265C387.011 776.904 389.335 774.017 388.535 770.919C386.295 762.244 381.29 754.47 374.198 748.826C365.587 741.971 354.605 738.818 343.669 740.061C332.733 741.303 322.738 746.839 315.884 755.45C310.239 762.541 307.105 771.24 306.868 780.196C306.783 783.395 309.696 785.687 312.875 785.326C316.054 784.965 318.279 782.078 318.536 778.888C319.011 773.007 321.22 767.35 324.949 762.666C329.889 756.458 337.094 752.468 344.977 751.573C352.86 750.677 360.776 752.95 366.983 757.891C371.667 761.619 375.089 766.636 376.871 772.262C377.837 775.312 380.653 777.626 383.832 777.265Z"/>
</mask>
<path d="M383.832 777.265C387.011 776.904 389.335 774.017 388.535 770.919C386.295 762.244 381.29 754.47 374.198 748.826C365.587 741.971 354.605 738.818 343.669 740.061C332.733 741.303 322.738 746.839 315.884 755.45C310.239 762.541 307.105 771.24 306.868 780.196C306.783 783.395 309.696 785.687 312.875 785.326C316.054 784.965 318.279 782.078 318.536 778.888C319.011 773.007 321.22 767.35 324.949 762.666C329.889 756.458 337.094 752.468 344.977 751.573C352.86 750.677 360.776 752.95 366.983 757.891C371.667 761.619 375.089 766.636 376.871 772.262C377.837 775.312 380.653 777.626 383.832 777.265Z" stroke="white" stroke-width="2" mask="url(#path-21-outside-20_2_1163)"/>
<mask id="path-22-outside-21_2_1163" maskUnits="userSpaceOnUse" x="798.132" y="677.832" width="89.4233" height="53.3132" fill="black">
<rect fill="white" x="798.132" y="677.832" width="89.4233" height="53.3132"/>
<path d="M880.637 720.827C883.816 720.466 886.14 717.579 885.34 714.481C883.1 705.806 878.094 698.032 871.003 692.388C862.392 685.533 851.41 682.381 840.474 683.623C829.538 684.865 819.543 690.401 812.688 699.013C807.044 706.104 803.909 714.802 803.672 723.759C803.588 726.957 806.5 729.249 809.679 728.888C812.858 728.527 815.083 725.64 815.341 722.451C815.816 716.569 818.025 710.912 821.753 706.228C826.694 700.021 833.898 696.03 841.781 695.135C849.664 694.239 857.58 696.512 863.788 701.453C868.472 705.181 871.893 710.199 873.675 715.824C874.642 718.874 877.458 721.188 880.637 720.827Z"/>
</mask>
<path d="M880.637 720.827C883.816 720.466 886.14 717.579 885.34 714.481C883.1 705.806 878.094 698.032 871.003 692.388C862.392 685.533 851.41 682.381 840.474 683.623C829.538 684.865 819.543 690.401 812.688 699.013C807.044 706.104 803.909 714.802 803.672 723.759C803.588 726.957 806.5 729.249 809.679 728.888C812.858 728.527 815.083 725.64 815.341 722.451C815.816 716.569 818.025 710.912 821.753 706.228C826.694 700.021 833.898 696.03 841.781 695.135C849.664 694.239 857.58 696.512 863.788 701.453C868.472 705.181 871.893 710.199 873.675 715.824C874.642 718.874 877.458 721.188 880.637 720.827Z" stroke="white" stroke-width="2" mask="url(#path-22-outside-21_2_1163)"/>
<mask id="path-23-outside-22_2_1163" maskUnits="userSpaceOnUse" x="285.412" y="594.171" width="89.4233" height="53.3132" fill="black">
<rect fill="white" x="285.412" y="594.171" width="89.4233" height="53.3132"/>
<path d="M367.917 637.166C371.096 636.805 373.42 633.918 372.62 630.82C370.38 622.145 365.374 614.371 358.283 608.727C349.672 601.872 338.69 598.719 327.754 599.962C316.818 601.204 306.823 606.74 299.968 615.351C294.324 622.442 291.189 631.141 290.952 640.098C290.868 643.296 293.78 645.588 296.959 645.227C300.138 644.866 302.363 641.979 302.621 638.79C303.096 632.908 305.305 627.251 309.033 622.567C313.974 616.359 321.178 612.369 329.061 611.474C336.944 610.578 344.86 612.851 351.068 617.792C355.752 621.52 359.173 626.537 360.955 632.163C361.922 635.213 364.738 637.527 367.917 637.166Z"/>
</mask>
<path d="M367.917 637.166C371.096 636.805 373.42 633.918 372.62 630.82C370.38 622.145 365.374 614.371 358.283 608.727C349.672 601.872 338.69 598.719 327.754 599.962C316.818 601.204 306.823 606.74 299.968 615.351C294.324 622.442 291.189 631.141 290.952 640.098C290.868 643.296 293.78 645.588 296.959 645.227C300.138 644.866 302.363 641.979 302.621 638.79C303.096 632.908 305.305 627.251 309.033 622.567C313.974 616.359 321.178 612.369 329.061 611.474C336.944 610.578 344.86 612.851 351.068 617.792C355.752 621.52 359.173 626.537 360.955 632.163C361.922 635.213 364.738 637.527 367.917 637.166Z" stroke="white" stroke-width="2" mask="url(#path-23-outside-22_2_1163)"/>
<mask id="path-24-outside-23_2_1163" maskUnits="userSpaceOnUse" x="782.217" y="537.733" width="89.4233" height="53.3132" fill="black">
<rect fill="white" x="782.217" y="537.733" width="89.4233" height="53.3132"/>
<path d="M864.721 580.728C867.9 580.367 870.224 577.48 869.425 574.382C867.184 565.707 862.179 557.933 855.088 552.289C846.476 545.435 835.494 542.282 824.558 543.524C813.622 544.766 803.627 550.302 796.773 558.914C791.128 566.005 787.994 574.703 787.757 583.66C787.672 586.858 790.585 589.15 793.764 588.789C796.943 588.428 799.168 585.541 799.425 582.352C799.9 576.47 802.109 570.813 805.838 566.129C810.779 559.922 817.983 555.931 825.866 555.036C833.749 554.14 841.665 556.413 847.872 561.354C852.556 565.082 855.978 570.1 857.76 575.725C858.726 578.775 861.542 581.089 864.721 580.728Z"/>
</mask>
<path d="M864.721 580.728C867.9 580.367 870.224 577.48 869.425 574.382C867.184 565.707 862.179 557.933 855.088 552.289C846.476 545.435 835.494 542.282 824.558 543.524C813.622 544.766 803.627 550.302 796.773 558.914C791.128 566.005 787.994 574.703 787.757 583.66C787.672 586.858 790.585 589.15 793.764 588.789C796.943 588.428 799.168 585.541 799.425 582.352C799.9 576.47 802.109 570.813 805.838 566.129C810.779 559.922 817.983 555.931 825.866 555.036C833.749 554.14 841.665 556.413 847.872 561.354C852.556 565.082 855.978 570.1 857.76 575.725C858.726 578.775 861.542 581.089 864.721 580.728Z" stroke="white" stroke-width="2" mask="url(#path-24-outside-23_2_1163)"/>
<mask id="path-25-outside-24_2_1163" maskUnits="userSpaceOnUse" x="-52.9093" y="566.18" width="89.4233" height="53.3132" fill="black">
<rect fill="white" x="-52.9093" y="566.18" width="89.4233" height="53.3132"/>
<path d="M-45.9904 576.498C-49.1693 576.859 -51.4935 579.746 -50.6936 582.844C-48.4535 591.519 -43.4478 599.293 -36.3567 604.937C-27.7451 611.792 -16.7634 614.945 -5.82725 613.703C5.10889 612.46 15.1036 606.924 21.9581 598.313C27.6025 591.222 30.7369 582.523 30.974 573.567C31.0587 570.368 28.1462 568.076 24.9672 568.437C21.7883 568.798 19.563 571.686 19.3056 574.875C18.8307 580.756 16.6217 586.413 12.8932 591.097C7.95233 597.305 0.74796 601.295 -7.13503 602.191C-15.018 603.086 -22.9339 600.813 -29.1412 595.873C-33.8253 592.144 -37.247 587.127 -39.0291 581.501C-39.9953 578.451 -42.8114 576.137 -45.9904 576.498Z"/>
</mask>
<path d="M-45.9904 576.498C-49.1693 576.859 -51.4935 579.746 -50.6936 582.844C-48.4535 591.519 -43.4478 599.293 -36.3567 604.937C-27.7451 611.792 -16.7634 614.945 -5.82725 613.703C5.10889 612.46 15.1036 606.924 21.9581 598.313C27.6025 591.222 30.7369 582.523 30.974 573.567C31.0587 570.368 28.1462 568.076 24.9672 568.437C21.7883 568.798 19.563 571.686 19.3056 574.875C18.8307 580.756 16.6217 586.413 12.8932 591.097C7.95233 597.305 0.74796 601.295 -7.13503 602.191C-15.018 603.086 -22.9339 600.813 -29.1412 595.873C-33.8253 592.144 -37.247 587.127 -39.0291 581.501C-39.9953 578.451 -42.8114 576.137 -45.9904 576.498Z" stroke="white" stroke-width="2" mask="url(#path-25-outside-24_2_1163)"/>
<mask id="path-26-outside-25_2_1163" maskUnits="userSpaceOnUse" x="443.895" y="509.742" width="89.4233" height="53.3132" fill="black">
<rect fill="white" x="443.895" y="509.742" width="89.4233" height="53.3132"/>
<path d="M450.814 520.06C447.635 520.422 445.311 523.309 446.111 526.406C448.351 535.082 453.357 542.855 460.448 548.5C469.059 555.354 480.041 558.507 490.977 557.265C501.914 556.022 511.908 550.487 518.763 541.875C524.407 534.784 527.542 526.086 527.779 517.129C527.863 513.931 524.951 511.638 521.772 512C518.593 512.361 516.368 515.248 516.11 518.437C515.635 524.319 513.426 529.976 509.698 534.66C504.757 540.867 497.553 544.857 489.67 545.753C481.787 546.648 473.871 544.376 467.663 539.435C462.979 535.706 459.558 530.689 457.776 525.064C456.809 522.014 453.993 519.699 450.814 520.06Z"/>
</mask>
<path d="M450.814 520.06C447.635 520.422 445.311 523.309 446.111 526.406C448.351 535.082 453.357 542.855 460.448 548.5C469.059 555.354 480.041 558.507 490.977 557.265C501.914 556.022 511.908 550.487 518.763 541.875C524.407 534.784 527.542 526.086 527.779 517.129C527.863 513.931 524.951 511.638 521.772 512C518.593 512.361 516.368 515.248 516.11 518.437C515.635 524.319 513.426 529.976 509.698 534.66C504.757 540.867 497.553 544.857 489.67 545.753C481.787 546.648 473.871 544.376 467.663 539.435C462.979 535.706 459.558 530.689 457.776 525.064C456.809 522.014 453.993 519.699 450.814 520.06Z" stroke="white" stroke-width="2" mask="url(#path-26-outside-25_2_1163)"/>
<mask id="path-27-outside-26_2_1163" maskUnits="userSpaceOnUse" x="475.726" y="789.94" width="89.4233" height="53.3132" fill="black">
<rect fill="white" x="475.726" y="789.94" width="89.4233" height="53.3132"/>
<path d="M482.645 800.258C479.466 800.619 477.142 803.507 477.942 806.604C480.182 815.28 485.188 823.053 492.279 828.698C500.89 835.552 511.872 838.705 522.808 837.463C533.744 836.22 543.739 830.684 550.594 822.073C556.238 814.982 559.372 806.283 559.61 797.327C559.694 794.128 556.782 791.836 553.603 792.197C550.424 792.559 548.198 795.446 547.941 798.635C547.466 804.516 545.257 810.173 541.529 814.857C536.588 821.065 529.383 825.055 521.5 825.951C513.617 826.846 505.702 824.574 499.494 819.633C494.81 815.904 491.388 810.887 489.606 805.262C488.64 802.212 485.824 799.897 482.645 800.258Z"/>
</mask>
<path d="M482.645 800.258C479.466 800.619 477.142 803.507 477.942 806.604C480.182 815.28 485.188 823.053 492.279 828.698C500.89 835.552 511.872 838.705 522.808 837.463C533.744 836.22 543.739 830.684 550.594 822.073C556.238 814.982 559.372 806.283 559.61 797.327C559.694 794.128 556.782 791.836 553.603 792.197C550.424 792.559 548.198 795.446 547.941 798.635C547.466 804.516 545.257 810.173 541.529 814.857C536.588 821.065 529.383 825.055 521.5 825.951C513.617 826.846 505.702 824.574 499.494 819.633C494.81 815.904 491.388 810.887 489.606 805.262C488.64 802.212 485.824 799.897 482.645 800.258Z" stroke="white" stroke-width="2" mask="url(#path-27-outside-26_2_1163)"/>
<mask id="path-28-outside-27_2_1163" maskUnits="userSpaceOnUse" x="-36.9938" y="706.279" width="89.4233" height="53.3132" fill="black">
<rect fill="white" x="-36.9938" y="706.279" width="89.4233" height="53.3132"/>
<path d="M-30.0749 716.597C-33.2539 716.958 -35.578 719.845 -34.7781 722.943C-32.538 731.618 -27.5324 739.392 -20.4412 745.036C-11.8297 751.891 -0.847932 755.044 10.0882 753.801C21.0244 752.559 31.0191 747.023 37.8736 738.412C43.518 731.321 46.6524 722.622 46.8895 713.665C46.9742 710.467 44.0616 708.175 40.8827 708.536C37.7038 708.897 35.4785 711.784 35.221 714.973C34.7462 720.855 32.5371 726.512 28.8087 731.196C23.8678 737.404 16.6634 741.394 8.78044 742.289C0.897457 743.185 -7.0184 740.912 -13.2257 735.971C-17.9099 732.243 -21.3316 727.226 -23.1136 721.6C-24.0798 718.55 -26.896 716.236 -30.0749 716.597Z"/>
</mask>
<path d="M-30.0749 716.597C-33.2539 716.958 -35.578 719.845 -34.7781 722.943C-32.538 731.618 -27.5324 739.392 -20.4412 745.036C-11.8297 751.891 -0.847932 755.044 10.0882 753.801C21.0244 752.559 31.0191 747.023 37.8736 738.412C43.518 731.321 46.6524 722.622 46.8895 713.665C46.9742 710.467 44.0616 708.175 40.8827 708.536C37.7038 708.897 35.4785 711.784 35.221 714.973C34.7462 720.855 32.5371 726.512 28.8087 731.196C23.8678 737.404 16.6634 741.394 8.78044 742.289C0.897457 743.185 -7.0184 740.912 -13.2257 735.971C-17.9099 732.243 -21.3316 727.226 -23.1136 721.6C-24.0798 718.55 -26.896 716.236 -30.0749 716.597Z" stroke="white" stroke-width="2" mask="url(#path-28-outside-27_2_1163)"/>
<mask id="path-29-outside-28_2_1163" maskUnits="userSpaceOnUse" x="459.811" y="649.841" width="89.4233" height="53.3132" fill="black">
<rect fill="white" x="459.811" y="649.841" width="89.4233" height="53.3132"/>
<path d="M466.73 660.159C463.551 660.52 461.227 663.408 462.026 666.505C464.267 675.181 469.272 682.954 476.363 688.599C484.975 695.453 495.957 698.606 506.893 697.364C517.829 696.121 527.824 690.586 534.678 681.974C540.323 674.883 543.457 666.184 543.694 657.228C543.779 654.03 540.866 651.737 537.687 652.098C534.508 652.46 532.283 655.347 532.026 658.536C531.551 664.417 529.342 670.074 525.613 674.759C520.672 680.966 513.468 684.956 505.585 685.852C497.702 686.747 489.786 684.475 483.579 679.534C478.895 675.805 475.473 670.788 473.691 665.163C472.725 662.113 469.909 659.798 466.73 660.159Z"/>
</mask>
<path d="M466.73 660.159C463.551 660.52 461.227 663.408 462.026 666.505C464.267 675.181 469.272 682.954 476.363 688.599C484.975 695.453 495.957 698.606 506.893 697.364C517.829 696.121 527.824 690.586 534.678 681.974C540.323 674.883 543.457 666.184 543.694 657.228C543.779 654.03 540.866 651.737 537.687 652.098C534.508 652.46 532.283 655.347 532.026 658.536C531.551 664.417 529.342 670.074 525.613 674.759C520.672 680.966 513.468 684.956 505.585 685.852C497.702 686.747 489.786 684.475 483.579 679.534C478.895 675.805 475.473 670.788 473.691 665.163C472.725 662.113 469.909 659.798 466.73 660.159Z" stroke="white" stroke-width="2" mask="url(#path-29-outside-28_2_1163)"/>
<mask id="path-30-outside-29_2_1163" maskUnits="userSpaceOnUse" x="195.493" y="537.961" width="89.4233" height="53.3132" fill="black">
<rect fill="white" x="195.493" y="537.961" width="89.4233" height="53.3132"/>
<path d="M202.412 548.279C199.233 548.64 196.909 551.527 197.709 554.625C199.949 563.301 204.954 571.074 212.046 576.719C220.657 583.573 231.639 586.726 242.575 585.484C253.511 584.241 263.506 578.705 270.36 570.094C276.005 563.003 279.139 554.304 279.376 545.348C279.461 542.149 276.548 539.857 273.37 540.218C270.191 540.58 267.965 543.467 267.708 546.656C267.233 552.537 265.024 558.194 261.296 562.878C256.355 569.086 249.15 573.076 241.267 573.972C233.384 574.867 225.468 572.595 219.261 567.654C214.577 563.925 211.155 558.908 209.373 553.283C208.407 550.233 205.591 547.918 202.412 548.279Z"/>
</mask>
<path d="M202.412 548.279C199.233 548.64 196.909 551.527 197.709 554.625C199.949 563.301 204.954 571.074 212.046 576.719C220.657 583.573 231.639 586.726 242.575 585.484C253.511 584.241 263.506 578.705 270.36 570.094C276.005 563.003 279.139 554.304 279.376 545.348C279.461 542.149 276.548 539.857 273.37 540.218C270.191 540.58 267.965 543.467 267.708 546.656C267.233 552.537 265.024 558.194 261.296 562.878C256.355 569.086 249.15 573.076 241.267 573.972C233.384 574.867 225.468 572.595 219.261 567.654C214.577 563.925 211.155 558.908 209.373 553.283C208.407 550.233 205.591 547.918 202.412 548.279Z" stroke="white" stroke-width="2" mask="url(#path-30-outside-29_2_1163)"/>
<mask id="path-31-outside-30_2_1163" maskUnits="userSpaceOnUse" x="692.298" y="481.524" width="89.4233" height="53.3132" fill="black">
<rect fill="white" x="692.298" y="481.524" width="89.4233" height="53.3132"/>
<path d="M699.217 491.842C696.038 492.203 693.713 495.09 694.513 498.188C696.753 506.863 701.759 514.637 708.85 520.281C717.462 527.135 728.444 530.288 739.38 529.046C750.316 527.804 760.311 522.268 767.165 513.656C772.809 506.565 775.944 497.867 776.181 488.91C776.266 485.712 773.353 483.42 770.174 483.781C766.995 484.142 764.77 487.029 764.512 490.218C764.038 496.1 761.829 501.757 758.1 506.441C753.159 512.648 745.955 516.639 738.072 517.534C730.189 518.43 722.273 516.157 716.066 511.216C711.382 507.488 707.96 502.47 706.178 496.845C705.212 493.795 702.395 491.481 699.217 491.842Z"/>
</mask>
<path d="M699.217 491.842C696.038 492.203 693.713 495.09 694.513 498.188C696.753 506.863 701.759 514.637 708.85 520.281C717.462 527.135 728.444 530.288 739.38 529.046C750.316 527.804 760.311 522.268 767.165 513.656C772.809 506.565 775.944 497.867 776.181 488.91C776.266 485.712 773.353 483.42 770.174 483.781C766.995 484.142 764.77 487.029 764.512 490.218C764.038 496.1 761.829 501.757 758.1 506.441C753.159 512.648 745.955 516.639 738.072 517.534C730.189 518.43 722.273 516.157 716.066 511.216C711.382 507.488 707.96 502.47 706.178 496.845C705.212 493.795 702.395 491.481 699.217 491.842Z" stroke="white" stroke-width="2" mask="url(#path-31-outside-30_2_1163)"/>
<mask id="path-32-outside-31_2_1163" maskUnits="userSpaceOnUse" x="724.128" y="761.721" width="89.4233" height="53.3132" fill="black">
<rect fill="white" x="724.128" y="761.721" width="89.4233" height="53.3132"/>
<path d="M731.047 772.039C727.868 772.401 725.544 775.288 726.344 778.385C728.584 787.061 733.59 794.834 740.681 800.479C749.293 807.333 760.274 810.486 771.211 809.244C782.147 808.001 792.141 802.466 798.996 793.854C804.64 786.763 807.775 778.065 808.012 769.108C808.096 765.91 805.184 763.617 802.005 763.979C798.826 764.34 796.601 767.227 796.343 770.416C795.868 776.297 793.659 781.954 789.931 786.639C784.99 792.846 777.786 796.836 769.903 797.732C762.02 798.627 754.104 796.355 747.897 791.414C743.212 787.685 739.791 782.668 738.009 777.043C737.042 773.993 734.226 771.678 731.047 772.039Z"/>
</mask>
<path d="M731.047 772.039C727.868 772.401 725.544 775.288 726.344 778.385C728.584 787.061 733.59 794.834 740.681 800.479C749.293 807.333 760.274 810.486 771.211 809.244C782.147 808.001 792.141 802.466 798.996 793.854C804.64 786.763 807.775 778.065 808.012 769.108C808.096 765.91 805.184 763.617 802.005 763.979C798.826 764.34 796.601 767.227 796.343 770.416C795.868 776.297 793.659 781.954 789.931 786.639C784.99 792.846 777.786 796.836 769.903 797.732C762.02 798.627 754.104 796.355 747.897 791.414C743.212 787.685 739.791 782.668 738.009 777.043C737.042 773.993 734.226 771.678 731.047 772.039Z" stroke="white" stroke-width="2" mask="url(#path-32-outside-31_2_1163)"/>
<mask id="path-33-outside-32_2_1163" maskUnits="userSpaceOnUse" x="211.408" y="678.06" width="89.4233" height="53.3132" fill="black">
<rect fill="white" x="211.408" y="678.06" width="89.4233" height="53.3132"/>
<path d="M218.327 688.378C215.148 688.739 212.824 691.626 213.624 694.724C215.864 703.399 220.87 711.173 227.961 716.818C236.573 723.672 247.554 726.825 258.49 725.583C269.427 724.34 279.421 718.804 286.276 710.193C291.92 703.102 295.055 694.403 295.292 685.447C295.376 682.248 292.464 679.956 289.285 680.317C286.106 680.678 283.881 683.566 283.623 686.755C283.148 692.636 280.939 698.293 277.211 702.977C272.27 709.185 265.066 713.175 257.183 714.071C249.3 714.966 241.384 712.693 235.177 707.753C230.492 704.024 227.071 699.007 225.289 693.382C224.322 690.332 221.506 688.017 218.327 688.378Z"/>
</mask>
<path d="M218.327 688.378C215.148 688.739 212.824 691.626 213.624 694.724C215.864 703.399 220.87 711.173 227.961 716.818C236.573 723.672 247.554 726.825 258.49 725.583C269.427 724.34 279.421 718.804 286.276 710.193C291.92 703.102 295.055 694.403 295.292 685.447C295.376 682.248 292.464 679.956 289.285 680.317C286.106 680.678 283.881 683.566 283.623 686.755C283.148 692.636 280.939 698.293 277.211 702.977C272.27 709.185 265.066 713.175 257.183 714.071C249.3 714.966 241.384 712.693 235.177 707.753C230.492 704.024 227.071 699.007 225.289 693.382C224.322 690.332 221.506 688.017 218.327 688.378Z" stroke="white" stroke-width="2" mask="url(#path-33-outside-32_2_1163)"/>
<mask id="path-34-outside-33_2_1163" maskUnits="userSpaceOnUse" x="708.213" y="621.623" width="89.4233" height="53.3132" fill="black">
<rect fill="white" x="708.213" y="621.623" width="89.4233" height="53.3132"/>
<path d="M715.132 631.941C711.953 632.302 709.629 635.189 710.429 638.287C712.669 646.962 717.675 654.735 724.766 660.38C733.377 667.234 744.359 670.387 755.295 669.145C766.231 667.903 776.226 662.367 783.08 653.755C788.725 646.664 791.859 637.966 792.096 629.009C792.181 625.811 789.269 623.519 786.09 623.88C782.911 624.241 780.685 627.128 780.428 630.317C779.953 636.199 777.744 641.856 774.016 646.54C769.075 652.747 761.87 656.737 753.987 657.633C746.104 658.528 738.188 656.256 731.981 651.315C727.297 647.586 723.875 642.569 722.093 636.944C721.127 633.894 718.311 631.579 715.132 631.941Z"/>
</mask>
<path d="M715.132 631.941C711.953 632.302 709.629 635.189 710.429 638.287C712.669 646.962 717.675 654.735 724.766 660.38C733.377 667.234 744.359 670.387 755.295 669.145C766.231 667.903 776.226 662.367 783.08 653.755C788.725 646.664 791.859 637.966 792.096 629.009C792.181 625.811 789.269 623.519 786.09 623.88C782.911 624.241 780.685 627.128 780.428 630.317C779.953 636.199 777.744 641.856 774.016 646.54C769.075 652.747 761.87 656.737 753.987 657.633C746.104 658.528 738.188 656.256 731.981 651.315C727.297 647.586 723.875 642.569 722.093 636.944C721.127 633.894 718.311 631.579 715.132 631.941Z" stroke="white" stroke-width="2" mask="url(#path-34-outside-33_2_1163)"/>
<mask id="path-35-outside-34_2_1163" maskUnits="userSpaceOnUse" x="71.2919" y="552.071" width="89.4233" height="53.3132" fill="black">
<rect fill="white" x="71.2919" y="552.071" width="89.4233" height="53.3132"/>
<path d="M78.2108 562.389C75.0319 562.75 72.7077 565.637 73.5076 568.735C75.7477 577.41 80.7534 585.184 87.8445 590.828C96.456 597.683 107.438 600.835 118.374 599.593C129.31 598.351 139.305 592.815 146.159 584.203C151.804 577.112 154.938 568.414 155.175 559.457C155.26 556.259 152.347 553.967 149.168 554.328C145.989 554.689 143.764 557.576 143.507 560.765C143.032 566.647 140.823 572.304 137.094 576.988C132.154 583.195 124.949 587.186 117.066 588.081C109.183 588.977 101.267 586.704 95.06 581.763C90.3758 578.035 86.9541 573.017 85.1721 567.392C84.2059 564.342 81.3897 562.028 78.2108 562.389Z"/>
</mask>
<path d="M78.2108 562.389C75.0319 562.75 72.7077 565.637 73.5076 568.735C75.7477 577.41 80.7534 585.184 87.8445 590.828C96.456 597.683 107.438 600.835 118.374 599.593C129.31 598.351 139.305 592.815 146.159 584.203C151.804 577.112 154.938 568.414 155.175 559.457C155.26 556.259 152.347 553.967 149.168 554.328C145.989 554.689 143.764 557.576 143.507 560.765C143.032 566.647 140.823 572.304 137.094 576.988C132.154 583.195 124.949 587.186 117.066 588.081C109.183 588.977 101.267 586.704 95.06 581.763C90.3758 578.035 86.9541 573.017 85.1721 567.392C84.2059 564.342 81.3897 562.028 78.2108 562.389Z" stroke="white" stroke-width="2" mask="url(#path-35-outside-34_2_1163)"/>
<mask id="path-36-outside-35_2_1163" maskUnits="userSpaceOnUse" x="568.096" y="495.633" width="89.4233" height="53.3132" fill="black">
<rect fill="white" x="568.096" y="495.633" width="89.4233" height="53.3132"/>
<path d="M575.015 505.951C571.836 506.312 569.512 509.199 570.312 512.297C572.552 520.972 577.558 528.746 584.649 534.39C593.261 541.245 604.242 544.398 615.179 543.155C626.115 541.913 636.109 536.377 642.964 527.766C648.608 520.675 651.743 511.976 651.98 503.019C652.064 499.821 649.152 497.529 645.973 497.89C642.794 498.251 640.569 501.138 640.311 504.327C639.837 510.209 637.627 515.866 633.899 520.55C628.958 526.758 621.754 530.748 613.871 531.643C605.988 532.539 598.072 530.266 591.865 525.325C587.18 521.597 583.759 516.58 581.977 510.954C581.011 507.904 578.194 505.59 575.015 505.951Z"/>
</mask>
<path d="M575.015 505.951C571.836 506.312 569.512 509.199 570.312 512.297C572.552 520.972 577.558 528.746 584.649 534.39C593.261 541.245 604.242 544.398 615.179 543.155C626.115 541.913 636.109 536.377 642.964 527.766C648.608 520.675 651.743 511.976 651.98 503.019C652.064 499.821 649.152 497.529 645.973 497.89C642.794 498.251 640.569 501.138 640.311 504.327C639.837 510.209 637.627 515.866 633.899 520.55C628.958 526.758 621.754 530.748 613.871 531.643C605.988 532.539 598.072 530.266 591.865 525.325C587.18 521.597 583.759 516.58 581.977 510.954C581.011 507.904 578.194 505.59 575.015 505.951Z" stroke="white" stroke-width="2" mask="url(#path-36-outside-35_2_1163)"/>
<mask id="path-37-outside-36_2_1163" maskUnits="userSpaceOnUse" x="599.927" y="775.831" width="89.4233" height="53.3132" fill="black">
<rect fill="white" x="599.927" y="775.831" width="89.4233" height="53.3132"/>
<path d="M606.846 786.149C603.667 786.51 601.343 789.397 602.143 792.495C604.383 801.17 609.389 808.944 616.48 814.588C625.091 821.443 636.073 824.596 647.009 823.353C657.946 822.111 667.94 816.575 674.795 807.964C680.439 800.872 683.574 792.174 683.811 783.217C683.895 780.019 680.983 777.727 677.804 778.088C674.625 778.449 672.4 781.336 672.142 784.525C671.667 790.407 669.458 796.064 665.73 800.748C660.789 806.955 653.585 810.946 645.702 811.841C637.819 812.737 629.903 810.464 623.695 805.523C619.011 801.795 615.59 796.777 613.808 791.152C612.841 788.102 610.025 785.788 606.846 786.149Z"/>
</mask>
<path d="M606.846 786.149C603.667 786.51 601.343 789.397 602.143 792.495C604.383 801.17 609.389 808.944 616.48 814.588C625.091 821.443 636.073 824.596 647.009 823.353C657.946 822.111 667.94 816.575 674.795 807.964C680.439 800.872 683.574 792.174 683.811 783.217C683.895 780.019 680.983 777.727 677.804 778.088C674.625 778.449 672.4 781.336 672.142 784.525C671.667 790.407 669.458 796.064 665.73 800.748C660.789 806.955 653.585 810.946 645.702 811.841C637.819 812.737 629.903 810.464 623.695 805.523C619.011 801.795 615.59 796.777 613.808 791.152C612.841 788.102 610.025 785.788 606.846 786.149Z" stroke="white" stroke-width="2" mask="url(#path-37-outside-36_2_1163)"/>
<mask id="path-38-outside-37_2_1163" maskUnits="userSpaceOnUse" x="87.2073" y="692.17" width="89.4233" height="53.3132" fill="black">
<rect fill="white" x="87.2073" y="692.17" width="89.4233" height="53.3132"/>
<path d="M94.1262 702.488C90.9473 702.849 88.6231 705.736 89.423 708.834C91.6631 717.509 96.6688 725.282 103.76 730.927C112.371 737.781 123.353 740.934 134.289 739.692C145.225 738.45 155.22 732.914 162.075 724.302C167.719 717.211 170.854 708.513 171.091 699.556C171.175 696.358 168.263 694.066 165.084 694.427C161.905 694.788 159.68 697.675 159.422 700.864C158.947 706.746 156.738 712.403 153.01 717.087C148.069 723.294 140.865 727.284 132.982 728.18C125.099 729.076 117.183 726.803 110.975 721.862C106.291 718.134 102.87 713.116 101.088 707.491C100.121 704.441 97.3052 702.126 94.1262 702.488Z"/>
</mask>
<path d="M94.1262 702.488C90.9473 702.849 88.6231 705.736 89.423 708.834C91.6631 717.509 96.6688 725.282 103.76 730.927C112.371 737.781 123.353 740.934 134.289 739.692C145.225 738.45 155.22 732.914 162.075 724.302C167.719 717.211 170.854 708.513 171.091 699.556C171.175 696.358 168.263 694.066 165.084 694.427C161.905 694.788 159.68 697.675 159.422 700.864C158.947 706.746 156.738 712.403 153.01 717.087C148.069 723.294 140.865 727.284 132.982 728.18C125.099 729.076 117.183 726.803 110.975 721.862C106.291 718.134 102.87 713.116 101.088 707.491C100.121 704.441 97.3052 702.126 94.1262 702.488Z" stroke="white" stroke-width="2" mask="url(#path-38-outside-37_2_1163)"/>
<mask id="path-39-outside-38_2_1163" maskUnits="userSpaceOnUse" x="584.012" y="635.732" width="89.4233" height="53.3132" fill="black">
<rect fill="white" x="584.012" y="635.732" width="89.4233" height="53.3132"/>
<path d="M590.931 646.05C587.752 646.411 585.428 649.298 586.228 652.396C588.468 661.071 593.473 668.845 600.565 674.489C609.176 681.344 620.158 684.497 631.094 683.254C642.03 682.012 652.025 676.476 658.879 667.865C664.524 660.773 667.658 652.075 667.895 643.118C667.98 639.92 665.067 637.628 661.888 637.989C658.709 638.35 656.484 641.237 656.227 644.426C655.752 650.308 653.543 655.965 649.814 660.649C644.874 666.857 637.669 670.847 629.786 671.742C621.903 672.638 613.987 670.365 607.78 665.424C603.096 661.696 599.674 656.679 597.892 651.053C596.926 648.003 594.11 645.689 590.931 646.05Z"/>
</mask>
<path d="M590.931 646.05C587.752 646.411 585.428 649.298 586.228 652.396C588.468 661.071 593.473 668.845 600.565 674.489C609.176 681.344 620.158 684.497 631.094 683.254C642.03 682.012 652.025 676.476 658.879 667.865C664.524 660.773 667.658 652.075 667.895 643.118C667.98 639.92 665.067 637.628 661.888 637.989C658.709 638.35 656.484 641.237 656.227 644.426C655.752 650.308 653.543 655.965 649.814 660.649C644.874 666.857 637.669 670.847 629.786 671.742C621.903 672.638 613.987 670.365 607.78 665.424C603.096 661.696 599.674 656.679 597.892 651.053C596.926 648.003 594.11 645.689 590.931 646.05Z" stroke="white" stroke-width="2" mask="url(#path-39-outside-38_2_1163)"/>
<mask id="path-40-outside-39_2_1163" maskUnits="userSpaceOnUse" x="319.694" y="523.852" width="89.4233" height="53.3132" fill="black">
<rect fill="white" x="319.694" y="523.852" width="89.4233" height="53.3132"/>
<path d="M326.613 534.17C323.434 534.531 321.11 537.418 321.91 540.516C324.15 549.191 329.156 556.965 336.247 562.609C344.858 569.464 355.84 572.617 366.776 571.374C377.712 570.132 387.707 564.596 394.562 555.985C400.206 548.893 403.34 540.195 403.578 531.238C403.662 528.04 400.75 525.748 397.571 526.109C394.392 526.47 392.166 529.357 391.909 532.546C391.434 538.428 389.225 544.085 385.497 548.769C380.556 554.976 373.351 558.967 365.468 559.862C357.585 560.758 349.67 558.485 343.462 553.544C338.778 549.816 335.356 544.798 333.574 539.173C332.608 536.123 329.792 533.809 326.613 534.17Z"/>
</mask>
<path d="M326.613 534.17C323.434 534.531 321.11 537.418 321.91 540.516C324.15 549.191 329.156 556.965 336.247 562.609C344.858 569.464 355.84 572.617 366.776 571.374C377.712 570.132 387.707 564.596 394.562 555.985C400.206 548.893 403.34 540.195 403.578 531.238C403.662 528.04 400.75 525.748 397.571 526.109C394.392 526.47 392.166 529.357 391.909 532.546C391.434 538.428 389.225 544.085 385.497 548.769C380.556 554.976 373.351 558.967 365.468 559.862C357.585 560.758 349.67 558.485 343.462 553.544C338.778 549.816 335.356 544.798 333.574 539.173C332.608 536.123 329.792 533.809 326.613 534.17Z" stroke="white" stroke-width="2" mask="url(#path-40-outside-39_2_1163)"/>
<mask id="path-41-outside-40_2_1163" maskUnits="userSpaceOnUse" x="816.499" y="467.414" width="89.4233" height="53.3132" fill="black">
<rect fill="white" x="816.499" y="467.414" width="89.4233" height="53.3132"/>
<path d="M823.418 477.732C820.239 478.093 817.915 480.98 818.714 484.078C820.955 492.753 825.96 500.527 833.051 506.172C841.663 513.026 852.645 516.179 863.581 514.937C874.517 513.694 884.512 508.158 891.366 499.547C897.011 492.456 900.145 483.757 900.382 474.801C900.467 471.602 897.554 469.31 894.375 469.671C891.196 470.032 888.971 472.92 888.714 476.109C888.239 481.99 886.03 487.647 882.301 492.331C877.36 498.539 870.156 502.529 862.273 503.425C854.39 504.32 846.474 502.047 840.267 497.107C835.583 493.378 832.161 488.361 830.379 482.736C829.413 479.686 826.597 477.371 823.418 477.732Z"/>
</mask>
<path d="M823.418 477.732C820.239 478.093 817.915 480.98 818.714 484.078C820.955 492.753 825.96 500.527 833.051 506.172C841.663 513.026 852.645 516.179 863.581 514.937C874.517 513.694 884.512 508.158 891.366 499.547C897.011 492.456 900.145 483.757 900.382 474.801C900.467 471.602 897.554 469.31 894.375 469.671C891.196 470.032 888.971 472.92 888.714 476.109C888.239 481.99 886.03 487.647 882.301 492.331C877.36 498.539 870.156 502.529 862.273 503.425C854.39 504.32 846.474 502.047 840.267 497.107C835.583 493.378 832.161 488.361 830.379 482.736C829.413 479.686 826.597 477.371 823.418 477.732Z" stroke="white" stroke-width="2" mask="url(#path-41-outside-40_2_1163)"/>
<mask id="path-42-outside-41_2_1163" maskUnits="userSpaceOnUse" x="351.525" y="804.05" width="89.4233" height="53.3132" fill="black">
<rect fill="white" x="351.525" y="804.05" width="89.4233" height="53.3132"/>
<path d="M358.444 814.368C355.265 814.729 352.941 817.616 353.741 820.714C355.981 829.389 360.986 837.163 368.078 842.807C376.689 849.661 387.671 852.814 398.607 851.572C409.543 850.33 419.538 844.794 426.392 836.182C432.037 829.091 435.171 820.393 435.408 811.436C435.493 808.238 432.58 805.946 429.402 806.307C426.223 806.668 423.997 809.555 423.74 812.744C423.265 818.626 421.056 824.283 417.328 828.967C412.387 835.174 405.182 839.165 397.299 840.06C389.416 840.956 381.5 838.683 375.293 833.742C370.609 830.014 367.187 824.996 365.405 819.371C364.439 816.321 361.623 814.007 358.444 814.368Z"/>
</mask>
<path d="M358.444 814.368C355.265 814.729 352.941 817.616 353.741 820.714C355.981 829.389 360.986 837.163 368.078 842.807C376.689 849.661 387.671 852.814 398.607 851.572C409.543 850.33 419.538 844.794 426.392 836.182C432.037 829.091 435.171 820.393 435.408 811.436C435.493 808.238 432.58 805.946 429.402 806.307C426.223 806.668 423.997 809.555 423.74 812.744C423.265 818.626 421.056 824.283 417.328 828.967C412.387 835.174 405.182 839.165 397.299 840.06C389.416 840.956 381.5 838.683 375.293 833.742C370.609 830.014 367.187 824.996 365.405 819.371C364.439 816.321 361.623 814.007 358.444 814.368Z" stroke="white" stroke-width="2" mask="url(#path-42-outside-41_2_1163)"/>
<mask id="path-43-outside-42_2_1163" maskUnits="userSpaceOnUse" x="848.33" y="747.612" width="89.4233" height="53.3132" fill="black">
<rect fill="white" x="848.33" y="747.612" width="89.4233" height="53.3132"/>
<path d="M855.249 757.93C852.07 758.291 849.745 761.178 850.545 764.276C852.785 772.951 857.791 780.725 864.882 786.369C873.494 793.224 884.476 796.377 895.412 795.134C906.348 793.892 916.343 788.356 923.197 779.745C928.841 772.654 931.976 763.955 932.213 754.998C932.298 751.8 929.385 749.508 926.206 749.869C923.027 750.23 920.802 753.117 920.544 756.306C920.07 762.188 917.861 767.845 914.132 772.529C909.191 778.737 901.987 782.727 894.104 783.622C886.221 784.518 878.305 782.245 872.098 777.304C867.414 773.576 863.992 768.559 862.21 762.933C861.244 759.883 858.427 757.569 855.249 757.93Z"/>
</mask>
<path d="M855.249 757.93C852.07 758.291 849.745 761.178 850.545 764.276C852.785 772.951 857.791 780.725 864.882 786.369C873.494 793.224 884.476 796.377 895.412 795.134C906.348 793.892 916.343 788.356 923.197 779.745C928.841 772.654 931.976 763.955 932.213 754.998C932.298 751.8 929.385 749.508 926.206 749.869C923.027 750.23 920.802 753.117 920.544 756.306C920.07 762.188 917.861 767.845 914.132 772.529C909.191 778.737 901.987 782.727 894.104 783.622C886.221 784.518 878.305 782.245 872.098 777.304C867.414 773.576 863.992 768.559 862.21 762.933C861.244 759.883 858.427 757.569 855.249 757.93Z" stroke="white" stroke-width="2" mask="url(#path-43-outside-42_2_1163)"/>
<mask id="path-44-outside-43_2_1163" maskUnits="userSpaceOnUse" x="335.61" y="663.951" width="89.4233" height="53.3132" fill="black">
<rect fill="white" x="335.61" y="663.951" width="89.4233" height="53.3132"/>
<path d="M342.529 674.269C339.35 674.63 337.025 677.517 337.825 680.615C340.065 689.29 345.071 697.064 352.162 702.708C360.774 709.563 371.755 712.716 382.692 711.473C393.628 710.231 403.622 704.695 410.477 696.083C416.121 688.992 419.256 680.294 419.493 671.337C419.578 668.139 416.665 665.847 413.486 666.208C410.307 666.569 408.082 669.456 407.824 672.645C407.35 678.527 405.141 684.184 401.412 688.868C396.471 695.075 389.267 699.066 381.384 699.961C373.501 700.857 365.585 698.584 359.378 693.643C354.694 689.915 351.272 684.897 349.49 679.272C348.524 676.222 345.707 673.908 342.529 674.269Z"/>
</mask>
<path d="M342.529 674.269C339.35 674.63 337.025 677.517 337.825 680.615C340.065 689.29 345.071 697.064 352.162 702.708C360.774 709.563 371.755 712.716 382.692 711.473C393.628 710.231 403.622 704.695 410.477 696.083C416.121 688.992 419.256 680.294 419.493 671.337C419.578 668.139 416.665 665.847 413.486 666.208C410.307 666.569 408.082 669.456 407.824 672.645C407.35 678.527 405.141 684.184 401.412 688.868C396.471 695.075 389.267 699.066 381.384 699.961C373.501 700.857 365.585 698.584 359.378 693.643C354.694 689.915 351.272 684.897 349.49 679.272C348.524 676.222 345.707 673.908 342.529 674.269Z" stroke="white" stroke-width="2" mask="url(#path-44-outside-43_2_1163)"/>
<mask id="path-45-outside-44_2_1163" maskUnits="userSpaceOnUse" x="832.414" y="607.513" width="89.4233" height="53.3132" fill="black">
<rect fill="white" x="832.414" y="607.513" width="89.4233" height="53.3132"/>
<path d="M839.333 617.831C836.154 618.192 833.83 621.079 834.63 624.177C836.87 632.852 841.876 640.626 848.967 646.27C857.578 653.125 868.56 656.278 879.496 655.035C890.432 653.793 900.427 648.257 907.282 639.646C912.926 632.555 916.06 623.856 916.298 614.9C916.382 611.701 913.47 609.409 910.291 609.77C907.112 610.131 904.887 613.019 904.629 616.208C904.154 622.089 901.945 627.746 898.217 632.43C893.276 638.638 886.071 642.628 878.188 643.524C870.305 644.419 862.39 642.146 856.182 637.205C851.498 633.477 848.076 628.46 846.294 622.834C845.328 619.784 842.512 617.47 839.333 617.831Z"/>
</mask>
<path d="M839.333 617.831C836.154 618.192 833.83 621.079 834.63 624.177C836.87 632.852 841.876 640.626 848.967 646.27C857.578 653.125 868.56 656.278 879.496 655.035C890.432 653.793 900.427 648.257 907.282 639.646C912.926 632.555 916.06 623.856 916.298 614.9C916.382 611.701 913.47 609.409 910.291 609.77C907.112 610.131 904.887 613.019 904.629 616.208C904.154 622.089 901.945 627.746 898.217 632.43C893.276 638.638 886.071 642.628 878.188 643.524C870.305 644.419 862.39 642.146 856.182 637.205C851.498 633.477 848.076 628.46 846.294 622.834C845.328 619.784 842.512 617.47 839.333 617.831Z" stroke="white" stroke-width="2" mask="url(#path-45-outside-44_2_1163)"/>
</g>
</g>
<defs>
<clipPath id="clip0_2_1163">
<rect width="850" height="812" fill="white"/>
</clipPath>
<clipPath id="clip1_2_1163">
<rect width="1000" height="540" fill="white" transform="translate(-102 506.875) rotate(-6.48109)"/>
</clipPath>
</defs>
</svg>
